<svg width="19" height="28" viewBox="0 0 19 28" fill="none" xmlns="http://www.w3.org/2000/svg">
<path d="M18.7008 10.0806C18.75 11.31 18.4918 12.4656 17.9632 13.5843C15.9102 17.9116 13.8818 22.2389 11.841 26.5663C11.3001 27.7096 10.2674 28.2136 9.12414 27.894C8.49717 27.7219 8.03001 27.3531 7.74726 26.763C5.58359 22.1775 3.29699 17.6412 1.30543 12.9819C0.0760688 10.1052 0.592399 7.19162 2.4979 4.68373C4.85827 1.57345 8.06689 0.380976 11.841 1.27841C15.4062 2.11437 17.619 4.51162 18.5287 8.07676C18.6148 8.39639 18.6517 8.71602 18.6762 9.04795C18.7254 9.39217 18.7008 9.73639 18.7008 10.0806ZM9.7634 5.51969C7.25552 5.51969 5.27625 7.47437 5.25166 9.96997C5.22708 12.4656 7.25552 14.5063 9.7634 14.5063C12.2467 14.5063 14.2506 12.5024 14.2506 10.0191C14.2506 7.52354 12.259 5.53198 9.7634 5.51969Z" fill="#CE007E"/>
</svg>
