<svg width="163" height="56" viewBox="0 0 163 56" fill="none" xmlns="http://www.w3.org/2000/svg">
<path d="M36.2965 26.046C33.7369 33.9744 37.8572 40.779 41.8526 47.0218C42.9763 46.1478 43.9751 45.2114 44.9115 44.2126C44.1624 42.3397 43.1011 40.342 41.6653 38.0946C29.4294 19.0541 44.0375 13.8726 44.0375 13.8726C36.671 21.3015 43.5381 30.6657 48.5323 38.9062C50.2803 35.5351 51.2792 31.727 51.2792 27.6692C51.2792 14.2472 40.4791 3.32227 27.1196 3.32227C13.76 3.3847 2.95996 14.3096 2.95996 27.7316C2.95996 41.1536 13.76 52.0785 27.1196 52.0785C31.3022 52.0785 35.1728 51.0172 38.6063 49.1444C29.1797 34.0992 36.2965 26.046 36.2965 26.046ZM35.36 9.25292C36.5462 9.25292 37.4826 10.1893 37.4826 11.3755C37.4826 12.5616 36.5462 13.498 35.36 13.498C34.1739 13.498 33.2375 12.5616 33.2375 11.3755C33.2375 10.2518 34.1739 9.25292 35.36 9.25292ZM27.0571 45.0865C27.0571 45.0865 25.1843 48.2079 21.6883 48.2079C18.8791 48.2079 16.5692 45.8981 16.5692 43.0264C16.5692 40.7166 18.3797 38.9062 20.6895 38.9062C22.4999 38.9062 23.9982 40.4045 23.9982 42.2149C23.9982 43.6507 22.812 44.8368 21.3762 44.8368C20.1901 44.8368 19.2536 43.9004 19.2536 42.7143H19.3785C19.3785 43.5883 20.0652 44.275 20.9392 44.275C22.0005 44.275 22.8745 43.401 22.8745 42.2773C22.8745 40.9039 21.7508 39.8426 20.4398 39.8426C18.7542 39.8426 17.3808 41.216 17.3808 42.9016C17.3808 45.0241 19.0664 46.7721 21.1889 46.7721C23.8109 46.7721 25.6837 44.5871 25.9959 41.9652C26.0583 41.4657 25.9959 40.9663 25.871 40.5293C25.7461 40.0923 25.5589 39.6553 25.3092 39.2808C24.7473 38.3443 23.9357 37.5952 23.1242 36.9085C22.1878 36.1594 21.1265 35.6599 20.1276 35.0981C18.3797 34.0992 16.7565 32.9131 15.3207 31.4773C14.4467 30.6033 13.6976 29.6669 13.1357 28.5431C12.886 28.0437 12.6987 27.5443 12.5739 26.9825C12.449 26.5455 12.3241 26.046 12.2617 25.609C12.1369 24.6726 12.1369 23.7362 12.2617 22.8622C12.3866 22.1131 12.6987 21.3639 13.0733 20.6772C13.4479 20.053 13.8848 19.4911 14.3843 18.9292C14.8213 18.4298 15.3831 18.0553 15.8825 17.6807C16.3195 17.3686 16.819 17.0564 17.3184 16.8067C18.2548 16.3697 19.1288 16.1824 19.7531 15.246C19.9404 14.9963 20.1276 14.6842 20.1276 14.4344C20.1901 13.9974 19.7531 13.935 19.3785 13.935C19.0039 13.935 18.6918 13.8726 18.3797 13.7477C17.9427 13.5604 17.5057 13.3107 17.0687 13.061C16.7565 12.8737 16.4444 12.7489 16.1947 12.5616C14.6964 12.3743 13.1357 12.6865 11.6999 13.1859C11.6999 13.1859 10.1392 11.5003 11.4502 11.5628C11.4502 11.5628 12.2617 11.5628 12.5739 11.5003C12.5739 11.5003 14.6964 11.5628 17.1935 9.56506C19.6906 7.56737 20.7519 6.94309 20.7519 6.94309C20.7519 6.94309 20.9392 6.5061 21.0641 6.25638L21.2513 5.56968C21.2513 5.56968 21.5011 5.6321 21.8132 5.75696C21.938 6.25638 22.375 6.56852 22.8745 6.56852C23.1242 6.56852 23.3115 6.50609 23.4987 6.38124C23.6236 6.44367 23.686 6.44367 23.8109 6.50609C23.8109 6.56852 23.8109 6.63095 23.8109 6.69338C23.8109 7.31766 24.3103 7.81708 24.9346 7.81708C25.1843 7.81708 25.434 7.75465 25.6213 7.56737C25.6837 7.6298 25.8086 7.69222 25.871 7.75465C25.6837 7.94194 25.6213 8.19165 25.6213 8.50379C25.6213 9.12807 26.1207 9.62749 26.745 9.62749C26.9323 9.62749 26.8699 9.62749 26.9947 9.56506C26.9947 9.62749 27.0571 9.75235 27.0571 9.81477C26.6826 10.0021 26.5577 10.3142 26.5577 10.8136C26.5577 11.2506 26.8074 11.6876 27.2444 11.8125C27.2444 11.8749 27.182 11.9373 27.182 11.9998C26.5577 11.9998 26.1207 12.4992 26.1207 13.1235C26.1207 13.3732 26.1831 13.5604 26.308 13.7477C25.4964 15.0587 24.8722 16.0576 24.4352 16.8067C23.4987 18.5547 22.5623 20.9269 22.1253 23.5489C22.5623 22.8622 23.686 20.8021 25.9959 21.4264C25.9959 21.4264 25.3716 22.3628 25.6213 23.7986C25.9334 25.2969 27.0571 27.9189 24.7473 29.6669C24.7473 29.6669 24.123 27.7316 22.0005 27.8564C22.0005 27.9813 22.1253 29.2923 22.7496 30.9778C23.1866 32.164 23.8733 33.3501 24.7473 34.5362C25.3716 35.2854 25.9959 36.0345 26.5577 36.8461C26.9323 37.3455 27.182 37.8449 27.4317 38.4692C28.2433 40.7166 28.3057 43.1513 27.0571 45.0865ZM29.1173 17.8055C29.1173 16.1824 30.4282 14.809 32.0514 14.809C33.6745 14.809 34.9855 16.12 34.9855 17.8055C34.9855 19.4287 33.6745 20.8021 32.0514 20.8021C30.4282 20.7397 29.1173 19.4287 29.1173 17.8055Z" fill="url(#paint0_linear_109_18)"/>
<path d="M27.1196 55.0126C19.878 55.0126 13.0733 52.2033 7.95422 47.0218C2.83513 41.8403 0.0258789 34.9732 0.0258789 27.7316C0.0258789 12.6865 12.1993 0.450588 27.1196 0.450588C42.0399 0.450588 54.2133 12.6865 54.2133 27.7316C54.2133 35.0357 51.4041 41.8403 46.285 47.0218C41.1659 52.1409 34.3612 55.0126 27.1196 55.0126ZM27.1196 2.13614C13.0733 2.13614 1.649 13.6229 1.649 27.7316C1.649 34.5987 4.27098 41.0287 9.07793 45.8357C13.8849 50.6426 20.2525 53.327 27.0572 53.327C33.8618 53.327 40.2295 50.6426 45.0364 45.8357C49.8434 41.0287 52.4653 34.5987 52.4653 27.7316C52.5902 13.6229 41.1659 2.13614 27.1196 2.13614Z" fill="url(#paint1_linear_109_18)"/>
<path d="M127.316 30.7281H129.564V43.9628H136.93V45.7108H127.316V30.7281Z" fill="#4D9FC6"/>
<path d="M138.74 35.4726C139.427 35.2229 141.05 34.7859 142.986 34.7859C146.357 34.7859 147.231 36.2842 147.231 38.6565V45.7108H145.108V44.8993C144.484 45.3363 143.298 45.8981 141.799 45.8981C139.302 45.8981 138.116 44.7744 138.116 42.6519C138.116 40.5917 139.677 39.7177 142.049 39.7177H145.046V38.3443C145.046 36.9085 144.421 36.2218 142.861 36.2218C141.487 36.2218 139.864 36.5339 138.99 36.8461L138.74 35.4726ZM145.108 43.7131V41.0912H142.549C140.988 41.0912 140.301 41.9027 140.301 42.6519C140.301 43.9628 140.988 44.4623 142.611 44.4623C143.423 44.4623 144.546 43.9628 145.108 43.7131Z" fill="#4D9FC6"/>
<path d="M151.414 30.7281V35.7848C152.038 35.4102 153.224 34.7859 154.66 34.7859C157.906 34.7859 159.155 36.8461 159.155 40.342C159.155 44.0877 157.906 45.8357 154.66 45.8357C153.162 45.8357 152.1 45.2738 151.414 44.8993V45.7108H149.291V30.7281H151.414ZM156.97 40.342C156.97 37.0333 155.409 36.3466 153.911 36.3466C152.849 36.3466 151.975 36.7836 151.414 37.0958V43.7131C151.975 44.0253 152.787 44.4623 153.911 44.4623C155.409 44.4623 156.97 43.7131 156.97 40.342Z" fill="#4D9FC6"/>
<path d="M91.7947 44.0877C90.4837 44.0877 89.1727 43.9004 89.1727 42.0276V41.1536H96.1647V39.2807C96.1647 36.5963 94.4791 35.2854 91.1704 35.2854C87.7369 35.2854 86.1138 36.7836 86.1138 40.0923V41.8403C86.1138 44.5871 87.8618 45.9605 91.3577 45.9605C92.856 45.9605 94.3543 45.7733 95.8525 45.4611L95.6028 43.6507C94.5415 43.838 92.7936 44.0877 91.7947 44.0877ZM89.1103 39.2807C89.1103 37.5952 89.6722 36.9709 91.1704 36.9709C92.2941 36.9709 93.4178 37.2206 93.4178 39.1559V39.905H89.1103V39.2807Z" fill="#4D9FC6"/>
<path d="M101.159 45.9605C102.532 45.9605 103.656 45.5235 104.218 45.0865L104.593 44.8368V45.7733H107.527V39.031C107.527 36.4091 106.028 35.2854 102.72 35.2854C101.034 35.2854 99.3486 35.6599 98.537 35.9096L98.8492 37.6576C99.5983 37.4703 101.346 37.1582 102.532 37.1582C104.031 37.1582 104.593 37.6576 104.593 38.9062V40.0923H101.783C99.2237 40.0923 98.0376 40.9663 98.0376 42.8391C98.0376 44.9617 99.0364 45.9605 101.159 45.9605ZM102.72 41.4657H104.593V43.838L104.468 43.9004C104.093 44.0877 103.406 44.3374 102.845 44.3374C101.971 44.3374 100.972 44.1501 100.972 42.8391C100.972 42.1524 101.534 41.4657 102.72 41.4657Z" fill="#4D9FC6"/>
<path d="M123.945 27.1073V19.7408C123.945 17.6183 123.571 16.7443 121.386 16.7443C120.387 16.7443 118.701 17.5558 117.702 18.305L117.453 18.4923L117.328 18.2425C117.016 17.4934 116.579 16.8067 115.018 16.8067C113.957 16.8067 112.334 17.7431 111.46 18.4298L111.085 18.6795V17.0564H108.276V27.2322H111.085V19.7408L111.148 19.6784C111.647 19.2414 112.583 18.8044 113.208 18.8044C114.144 18.8044 114.644 19.3662 114.644 20.3651V27.1697H117.453V19.6784L117.515 19.616C118.015 19.2414 118.951 18.8044 119.513 18.8044C120.449 18.8044 120.886 19.3038 120.886 20.3651V27.1697H123.945V27.1073Z" fill="#4D9FC6"/>
<path d="M99.4736 16.9316V27.1073H102.408V21.9882C102.408 20.6772 103.781 18.9917 105.342 18.9917H106.466L106.216 16.6194H105.529C104.156 16.6194 103.157 17.8055 102.782 18.305L102.408 18.8668V16.8691H99.4736V16.9316Z" fill="#4D9FC6"/>
<path d="M117.515 39.4056V45.7733H120.449V39.031C120.449 36.3466 119.637 35.2854 117.515 35.2854C116.079 35.2854 114.394 35.7848 113.395 36.2842L113.083 36.4715V35.5351H110.148V45.7108H113.083V38.157L113.145 38.0946C113.644 37.7201 114.581 37.2831 115.455 37.2831C116.953 37.2831 117.515 37.9073 117.515 39.4056Z" fill="#4D9FC6"/>
<path d="M84.9901 27.1073V20.053C84.9901 16.994 83.4294 16.7443 81.4317 16.7443C79.7462 16.7443 78.6849 17.3061 77.9982 17.7431L77.6861 17.9304V12.6865H74.752V27.1697H77.6861V19.6784L77.7485 19.616C78.2479 19.179 79.1843 18.742 80.0583 18.742C81.4942 18.742 82.1184 19.3038 82.1184 20.6772V27.1697H84.9901V27.1073Z" fill="#4D9FC6"/>
<path d="M74.1276 36.8461C74.1276 33.1004 71.7554 31.0403 67.4479 31.0403C63.1403 31.0403 60.7681 33.1004 60.7681 36.8461V40.2796C60.7681 44.9617 64.3889 45.9605 67.4479 45.9605C70.5068 45.9605 74.1276 44.9617 74.1276 40.2796V36.8461ZM70.819 39.8426C70.819 42.2773 69.6953 43.5259 67.4479 43.5259C65.2629 43.5259 64.0767 42.2149 64.0767 39.8426V37.0958C64.0767 34.7859 65.3253 33.4125 67.4479 33.4125C69.6328 33.4125 70.819 34.7235 70.819 37.0958V39.8426Z" fill="#4D9FC6"/>
<path d="M66.5116 12.6865H61.3301V27.1697H64.5139V22.8622H66.4492C70.6943 22.8622 72.3174 21.4888 72.3174 17.6807C72.3798 13.9974 70.8191 12.6865 66.5116 12.6865ZM66.5116 20.4899H64.5763V15.0587H66.5116C67.885 15.0587 69.1336 15.3709 69.1336 17.6807C69.1336 20.1778 67.6977 20.4899 66.5116 20.4899Z" fill="#4D9FC6"/>
<path d="M84.0538 43.4634C83.3047 43.7131 82.8053 43.9004 81.9937 43.9004C80.0584 43.9004 79.2469 43.0889 79.2469 41.216V40.1547C79.2469 38.2819 80.1209 37.4079 81.9937 37.4079C82.6804 37.4079 83.6793 37.7201 84.2411 37.9073L84.6157 35.9096C83.6168 35.5351 82.1186 35.2854 81.307 35.2854C78.1856 35.2854 76.1255 37.0958 76.1255 39.8426V41.4657C76.1255 44.3374 77.9983 45.9605 81.307 45.9605C81.9937 45.9605 83.4296 45.8357 84.6157 45.3987L84.2411 43.401L84.0538 43.4634Z" fill="#4D9FC6"/>
<path d="M90.4836 27.357C91.857 27.357 92.9807 26.92 93.5426 26.483L93.9172 26.2333V27.1697H96.8513V20.4899C96.8513 17.868 95.353 16.7443 92.0443 16.7443C90.3588 16.7443 88.6732 17.1188 87.8617 17.3686L88.1738 19.1165C88.9229 18.9293 90.6709 18.6171 91.857 18.6171C93.3553 18.6171 93.9172 19.1165 93.9172 20.3651V21.5512H91.0455C88.4859 21.5512 87.2998 22.4252 87.2998 24.2981C87.2998 26.3582 88.2986 27.357 90.4836 27.357ZM91.9819 22.8622H93.8547V25.2345L93.7299 25.2969C93.3553 25.4842 92.6686 25.7339 92.1068 25.7339C91.2328 25.7339 90.2339 25.5466 90.2339 24.2356C90.2963 23.5489 90.7958 22.8622 91.9819 22.8622Z" fill="#4D9FC6"/>
<path d="M162.401 44.5871C162.401 45.2114 161.901 45.7733 161.214 45.7733C160.59 45.7733 160.028 45.2738 160.028 44.5871C160.028 43.9628 160.528 43.401 161.214 43.401C161.839 43.401 162.401 43.9004 162.401 44.5871Z" fill="#4D9FC6"/>
<defs>
<linearGradient id="paint0_linear_109_18" x1="27.1204" y1="49.2266" x2="27.1204" y2="2.36001" gradientUnits="userSpaceOnUse">
<stop stop-color="#8ACBCC"/>
<stop offset="0.222" stop-color="#86C9CC"/>
<stop offset="0.4652" stop-color="#78C3CB"/>
<stop offset="0.7187" stop-color="#62B8C9"/>
<stop offset="0.9776" stop-color="#44A9C7"/>
<stop offset="1" stop-color="#41A8C7"/>
</linearGradient>
<linearGradient id="paint1_linear_109_18" x1="0.0258789" y1="27.7171" x2="54.2151" y2="27.7171" gradientUnits="userSpaceOnUse">
<stop stop-color="#8ACBCC"/>
<stop offset="0.222" stop-color="#86C9CC"/>
<stop offset="0.4652" stop-color="#78C3CB"/>
<stop offset="0.7187" stop-color="#62B8C9"/>
<stop offset="0.9776" stop-color="#44A9C7"/>
<stop offset="1" stop-color="#41A8C7"/>
</linearGradient>
</defs>
</svg>
