<svg width="23" height="23" viewBox="0 0 23 23" fill="none" xmlns="http://www.w3.org/2000/svg">
<path d="M16.9248 22.4724C16.4444 22.3959 15.9421 22.3741 15.4726 22.2321C12.5573 21.4023 9.83853 20.2013 7.56742 18.1267C5.29631 16.0521 3.1453 13.8793 1.88964 11.0185C1.21268 9.47898 0.492033 7.92851 0.350089 6.21426C0.197226 4.29255 0.928785 2.66565 2.24996 1.34447C2.99244 0.601994 4.05156 0.514642 5.05609 0.503723C5.27447 0.503723 5.55836 0.787613 5.68938 1.01691C6.14797 1.75939 6.53013 2.54554 6.96689 3.29894C7.31629 3.91039 7.69844 4.51093 8.0806 5.11146C8.38633 5.59189 8.36449 6.05048 7.94958 6.44355C7.40364 6.95674 6.82494 7.42624 6.26808 7.91759C5.31814 8.75834 5.32906 8.93304 5.91868 10.0358C7.52374 13.0276 9.83853 15.2878 12.8194 16.8929C13.7911 17.417 13.9986 17.4279 14.7302 16.598C15.2433 16.0303 15.7128 15.4188 16.2369 14.8729C16.7611 14.3378 17.0559 14.3269 17.6891 14.6982C18.9448 15.4297 20.2005 16.1613 21.4671 16.8819C22.2969 17.3624 22.3296 17.4497 22.2205 18.4106C22.0676 19.7645 21.4561 20.7909 20.2223 21.4569C19.1959 22.0247 18.1368 22.4614 16.9248 22.4724Z" fill="#CE007E"/>
</svg>
